HIERARCHY
ROOT Hips
{
	OFFSET 0.000000 100.481300 0.000000
	CHANNELS 6 Xposition Yposition Zposition Xrotation Yrotation Zrotation
	JOINT Spine
	{
		OFFSET -0.279200 12.230698 -2.892100
		CHANNELS 3 Xrotation Yrotation Zrotation
		JOINT Spine1
		{
			OFFSET -0.325700 14.269203 -3.374200
			CHANNELS 3 Xrotation Yrotation Zrotation
			JOINT Spine2
			{
				OFFSET -0.372300 16.307602 -0.352600
				CHANNELS 3 Xrotation Yrotation Zrotation
				JOINT Neck
				{
					OFFSET -0.418800 17.814194 8.416900
					CHANNELS 3 Xrotation Yrotation Zrotation
					JOINT Head
					{
						OFFSET 0.000000 7.031097 3.806800
						CHANNELS 3 Xrotation Yrotation Zrotation
						JOINT HeadTop_End
						{
							OFFSET 0.000000 24.646606 12.978600
							CHANNELS 3 Xrotation Yrotation Zrotation
							End Site
							{
								OFFSET 0.000000 27.854965 0.000000
							}
						}
					}
				}
				JOINT LeftShoulder
				{
					OFFSET 16.952999 14.495407 -7.737500
					CHANNELS 3 Xrotation Yrotation Zrotation
					JOINT LeftArm
					{
						OFFSET 9.308998 -2.777710 0.208600
						CHANNELS 3 Xrotation Yrotation Zrotation
						JOINT LeftForeArm
						{
							OFFSET 29.972298 0.000000 0.000000
							CHANNELS 3 Xrotation Yrotation Zrotation
							JOINT LeftHand
							{
								OFFSET 26.026505 0.000000 0.000000
								CHANNELS 3 Xrotation Yrotation Zrotation
								JOINT LeftHandThumb1
								{
									OFFSET 12.240501 -7.147949 9.207150
									CHANNELS 3 Xrotation Yrotation Zrotation
									JOINT LeftHandThumb2
									{
										OFFSET 4.138618 -2.389435 2.389433
										CHANNELS 3 Xrotation Yrotation Zrotation
										JOINT LeftHandThumb3
										{
											OFFSET 2.726913 -1.574387 1.574386
											CHANNELS 3 Xrotation Yrotation Zrotation
											JOINT LeftHandThumb4
											{
												OFFSET 3.941010 -2.275345 2.275342
												CHANNELS 3 Xrotation Yrotation Zrotation
												End Site
												{
													OFFSET -0.005798 5.087799 0.009903
												}
											}
										}
									}
								}
								JOINT LeftHandIndex1
								{
									OFFSET 24.424698 -1.985611 5.953459
									CHANNELS 3 Xrotation Yrotation Zrotation
									JOINT LeftHandIndex2
									{
										OFFSET 6.426697 0.000000 0.000000
										CHANNELS 3 Xrotation Yrotation Zrotation
										JOINT LeftHandIndex3
										{
											OFFSET 5.337898 0.000000 0.000000
											CHANNELS 3 Xrotation Yrotation Zrotation
											JOINT LeftHandIndex4
											{
												OFFSET 4.409401 0.000000 0.000000
												CHANNELS 3 Xrotation Yrotation Zrotation
												End Site
												{
													OFFSET 0.000000 4.409363 0.014373
												}
											}
										}
									}
								}
								JOINT LeftHandMiddle1
								{
									OFFSET 23.810104 0.000000 0.000000
									CHANNELS 3 Xrotation Yrotation Zrotation
									JOINT LeftHandMiddle2
									{
										OFFSET 7.176498 0.000000 0.000000
										CHANNELS 3 Xrotation Yrotation Zrotation
										JOINT LeftHandMiddle3
										{
											OFFSET 6.774902 0.000000 0.000000
											CHANNELS 3 Xrotation Yrotation Zrotation
											JOINT LeftHandMiddle4
											{
												OFFSET 5.403328 0.000000 0.000000
												CHANNELS 3 Xrotation Yrotation Zrotation
												End Site
												{
													OFFSET -0.027702 5.403244 0.017414
												}
											}
										}
									}
								}
								JOINT LeftHandRing1
								{
									OFFSET 22.908401 -0.839279 -6.020567
									CHANNELS 3 Xrotation Yrotation Zrotation
									JOINT LeftHandRing2
									{
										OFFSET 6.337502 0.000000 0.000000
										CHANNELS 3 Xrotation Yrotation Zrotation
										JOINT LeftHandRing3
										{
											OFFSET 5.779297 0.000000 0.000000
											CHANNELS 3 Xrotation Yrotation Zrotation
											JOINT LeftHandRing4
											{
												OFFSET 4.965698 0.000000 0.000000
												CHANNELS 3 Xrotation Yrotation Zrotation
												End Site
												{
													OFFSET 0.000000 4.965668 0.016186
												}
											}
										}
									}
								}
								JOINT LeftHandPinky1
								{
									OFFSET 20.037003 -1.530319 -10.950146
									CHANNELS 3 Xrotation Yrotation Zrotation
									JOINT LeftHandPinky2
									{
										OFFSET 5.254700 0.000000 0.000000
										CHANNELS 3 Xrotation Yrotation Zrotation
										JOINT LeftHandPinky3
										{
											OFFSET 4.810204 0.000000 0.000000
											CHANNELS 3 Xrotation Yrotation Zrotation
											JOINT LeftHandPinky4
											{
												OFFSET 3.647202 0.000000 0.000000
												CHANNELS 3 Xrotation Yrotation Zrotation
												End Site
												{
													OFFSET 0.000000 3.647186 0.011889
												}
											}
										}
									}
								}
							}
						}
					}
				}
				JOINT RightShoulder
				{
					OFFSET -15.141001 14.495407 -7.737500
					CHANNELS 3 Xrotation Yrotation Zrotation
					JOINT RightArm
					{
						OFFSET -9.308998 -2.777710 0.208500
						CHANNELS 3 Xrotation Yrotation Zrotation
						JOINT RightForeArm
						{
							OFFSET -29.972300 0.000000 0.000000
							CHANNELS 3 Xrotation Yrotation Zrotation
							JOINT RightHand
							{
								OFFSET -26.026505 0.000000 0.000000
								CHANNELS 3 Xrotation Yrotation Zrotation
								JOINT RightHandThumb1
								{
									OFFSET -12.240601 -7.148026 9.207092
									CHANNELS 3 Xrotation Yrotation Zrotation
									JOINT RightHandThumb2
									{
										OFFSET -4.138618 -2.389435 2.389433
										CHANNELS 3 Xrotation Yrotation Zrotation
										JOINT RightHandThumb3
										{
											OFFSET -2.726974 -1.574417 1.574421
											CHANNELS 3 Xrotation Yrotation Zrotation
											JOINT RightHandThumb4
											{
												OFFSET -3.941010 -2.275345 2.275343
												CHANNELS 3 Xrotation Yrotation Zrotation
												End Site
												{
													OFFSET 0.005814 5.087799 0.009927
												}
											}
										}
									}
								}
								JOINT RightHandIndex1
								{
									OFFSET -24.424698 -1.985657 5.953444
									CHANNELS 3 Xrotation Yrotation Zrotation
									JOINT RightHandIndex2
									{
										OFFSET -6.426697 0.000000 0.000000
										CHANNELS 3 Xrotation Yrotation Zrotation
										JOINT RightHandIndex3
										{
											OFFSET -5.337898 0.000000 0.000000
											CHANNELS 3 Xrotation Yrotation Zrotation
											JOINT RightHandIndex4
											{
												OFFSET -4.409401 0.000000 0.000000
												CHANNELS 3 Xrotation Yrotation Zrotation
												End Site
												{
													OFFSET 0.000000 4.409363 0.014408
												}
											}
										}
									}
								}
								JOINT RightHandMiddle1
								{
									OFFSET -23.810097 0.000000 0.000000
									CHANNELS 3 Xrotation Yrotation Zrotation
									JOINT RightHandMiddle2
									{
										OFFSET -7.176498 0.000000 0.000000
										CHANNELS 3 Xrotation Yrotation Zrotation
										JOINT RightHandMiddle3
										{
											OFFSET -6.774902 0.000000 0.000000
											CHANNELS 3 Xrotation Yrotation Zrotation
											JOINT RightHandMiddle4
											{
												OFFSET -5.403328 0.000000 0.000000
												CHANNELS 3 Xrotation Yrotation Zrotation
												End Site
												{
													OFFSET 0.027702 5.403244 0.017457
												}
											}
										}
									}
								}
								JOINT RightHandRing1
								{
									OFFSET -22.908302 -0.839325 -6.020576
									CHANNELS 3 Xrotation Yrotation Zrotation
									JOINT RightHandRing2
									{
										OFFSET -6.337502 0.000000 0.000000
										CHANNELS 3 Xrotation Yrotation Zrotation
										JOINT RightHandRing3
										{
											OFFSET -5.779297 0.000000 0.000000
											CHANNELS 3 Xrotation Yrotation Zrotation
											JOINT RightHandRing4
											{
												OFFSET -4.965698 0.000000 0.000000
												CHANNELS 3 Xrotation Yrotation Zrotation
												End Site
												{
													OFFSET 0.000000 4.965668 0.016226
												}
											}
										}
									}
								}
								JOINT RightHandPinky1
								{
									OFFSET -20.037003 -1.530334 -10.950259
									CHANNELS 3 Xrotation Yrotation Zrotation
									JOINT RightHandPinky2
									{
										OFFSET -5.254700 0.000000 0.000000
										CHANNELS 3 Xrotation Yrotation Zrotation
										JOINT RightHandPinky3
										{
											OFFSET -4.810204 0.000000 0.000000
											CHANNELS 3 Xrotation Yrotation Zrotation
											JOINT RightHandPinky4
											{
												OFFSET -3.647202 0.000000 0.000000
												CHANNELS 3 Xrotation Yrotation Zrotation
												End Site
												{
													OFFSET 0.000000 3.647186 0.011917
												}
											}
										}
									}
								}
							}
						}
					}
				}
			}
		}
	}
	JOINT LeftUpLeg
	{
		OFFSET 15.427100 -6.655098 0.678600
		CHANNELS 3 Xrotation Yrotation Zrotation
		JOINT LeftLeg
		{
			OFFSET 4.081073 -39.591068 13.024000
			CHANNELS 3 Xrotation Yrotation Zrotation
			JOINT LeftFoot
			{
				OFFSET -4.081074 -37.707932 -15.979700
				CHANNELS 3 Xrotation Yrotation Zrotation
				JOINT LeftToeBase
				{
					OFFSET 5.346399 -15.068900 20.645000
					CHANNELS 3 Xrotation Yrotation Zrotation
					JOINT LeftToe_End
					{
						OFFSET 2.754700 0.931300 11.300900
						CHANNELS 3 Xrotation Yrotation Zrotation
						End Site
						{
							OFFSET 0.000000 11.669021 0.000000
						}
					}
				}
			}
		}
	}
	JOINT RightUpLeg
	{
		OFFSET -15.569500 -6.655098 0.678600
		CHANNELS 3 Xrotation Yrotation Zrotation
		JOINT RightLeg
		{
			OFFSET -4.081825 -39.591045 13.023800
			CHANNELS 3 Xrotation Yrotation Zrotation
			JOINT RightFoot
			{
				OFFSET 4.081824 -37.707954 -15.979600
				CHANNELS 3 Xrotation Yrotation Zrotation
				JOINT RightToeBase
				{
					OFFSET -5.346400 -15.068900 20.645000
					CHANNELS 3 Xrotation Yrotation Zrotation
					JOINT RightToe_End
					{
						OFFSET -2.754700 0.931300 11.300900
						CHANNELS 3 Xrotation Yrotation Zrotation
						End Site
						{
							OFFSET 0.000000 11.669021 0.000000
						}
					}
				}
			}
		}
	}
}
MOTION
Frames: 4
Frame Time: 0.033333
-0.054383 79.187027 -1.645148 -1.119944 -2.999317 0.301576 0.941423 0.412916 -0.487478 2.614559 0.613203 0.372837 2.585963 0.610959 0.398689 -0.414051 -0.833947 4.456304 -7.059034 3.370159 -6.685055 -0.000000 0.000000 0.000000 -8.881695 21.402741 32.688749 -85.266613 -29.531474 -2.902189 0.000009 -60.079362 0.000010 -10.460325 -15.789514 4.341877 -6.358670 -7.333591 17.225691 20.911355 23.493976 -8.571866 -9.955384 -4.770398 4.650710 0.000000 0.000002 0.000000 -3.213291 -2.940682 -36.442054 0.299342 1.850413 -18.376622 0.093720 -1.044786 10.251031 0.000000 -0.000000 0.000001 -2.881462 -1.308519 -29.818359 0.561162 2.503952 -25.260317 0.032474 0.616694 -6.029181 0.000003 0.000000 0.000001 -2.408670 -1.267150 -26.641781 0.681126 2.743558 -27.880276 0.172923 1.414327 -13.941351 0.000001 0.000000 0.000001 -6.758832 3.035890 -12.106250 1.002593 3.279173 -33.993688 0.136845 1.260136 -12.395192 -0.000005 0.000002 0.000001 -9.465236 -22.957779 -32.350887 -106.229167 29.400221 21.539732 -0.000011 59.699637 0.000012 -12.908194 4.431231 -11.482133 -2.723073 1.690382 -11.878385 13.805509 -2.868226 -6.396593 -0.389022 -19.412224 -18.672364 -0.000001 -0.000000 -0.000001 2.351574 -0.782739 10.096541 0.494290 -2.089793 26.611544 0.053029 -0.701614 8.645814 -0.000001 -0.000001 -0.000003 0.635729 -5.065826 15.118477 0.254663 -1.520461 19.016119 0.198237 -1.345668 16.759862 0.000001 0.000003 -0.000003 0.763323 -5.043084 20.314929 0.029475 -0.523807 6.443737 0.227480 -1.439210 17.963712 0.000000 0.000000 -0.000003 0.652372 -6.757610 11.610637 0.222065 -1.422350 17.746379 0.118785 -1.046257 12.955122 0.000001 0.000000 0.000005 -21.878607 2.450467 32.981997 37.834218 -12.457325 8.734209 -8.853566 -5.574282 -25.909896 -6.970050 0.104573 -3.620296 -0.000000 -0.000000 -0.000001 -23.250702 6.718374 -24.992402 47.858859 9.076060 -8.303173 -13.509874 6.801307 21.917239 -11.006592 -0.056913 2.671055 0.000000 0.000000 -0.000000 
-0.056692 76.200676 -2.119288 -1.499743 -3.000976 0.276749 1.007307 0.598688 -0.354769 2.891199 0.841274 0.511874 2.838671 0.819128 0.536945 0.766484 -0.634834 3.720433 -7.635995 3.309795 -6.339578 0.000000 -0.000000 0.000000 -8.582263 17.694071 37.831147 -85.690583 -28.655536 -1.412729 -0.000008 -60.787782 -0.000008 -6.020641 -17.503804 5.269731 -6.228455 -5.494726 17.623065 21.435273 25.711460 -7.935295 -5.748500 -10.604314 5.654230 -0.000001 0.000005 -0.000002 -2.769028 -1.356274 -35.203109 0.256915 1.717524 -17.014054 0.089587 -1.021738 10.022491 0.000001 0.000001 -0.000003 -2.419448 -0.907180 -28.069825 0.431260 2.207968 -22.100771 0.033728 0.628424 -6.144413 0.000001 0.000001 -0.000001 -1.953740 -0.638889 -25.381615 0.521888 2.419031 -24.345762 0.196581 1.506402 -14.869537 -0.000002 -0.000000 -0.000000 -5.530517 4.171818 -12.711648 0.950372 3.200512 -33.069730 0.127264 1.215686 -11.951175 -0.000003 0.000001 -0.000001 -8.776067 -18.252685 -37.167233 -107.910186 27.903218 20.858547 0.000024 66.431642 -0.000024 -11.141340 3.451091 -15.754741 -4.533086 -0.069867 -15.715582 11.670623 2.292667 -8.822942 -2.058834 -18.248455 -12.377095 -0.000000 0.000001 -0.000003 1.250545 1.695393 2.149367 0.695201 -2.449806 31.681009 0.052249 -0.696342 8.580420 0.000001 0.000001 -0.000000 0.105777 -3.364735 3.480102 0.476897 -2.054765 26.130782 0.191143 -1.321969 16.455992 -0.000000 -0.000002 -0.000005 0.462019 -5.411852 8.345224 0.101030 -0.965813 11.943365 0.221349 -1.420155 17.717815 0.000000 0.000002 0.000000 -0.022009 -7.903366 0.788771 0.254285 -1.519315 19.001354 0.120967 -1.055674 13.073572 -0.000000 0.000001 0.000001 -19.565758 1.330071 33.424859 38.887607 -11.295932 8.796734 -17.206230 -1.840249 -26.700369 -3.902517 0.006786 -0.926630 0.000000 0.000000 0.000000 -20.721006 7.941385 -25.032853 49.597323 8.976019 -8.659270 -23.320298 2.595669 20.602241 -9.159424 0.000000 -0.000003 0.000000 0.000000 -0.000000 
0.088059 74.392921 -2.133917 -1.661154 -2.985052 0.207692 1.017149 0.746758 -0.173709 3.073219 1.055448 0.668540 3.069588 1.044060 0.698774 1.965742 -0.412267 2.942200 -8.223729 3.343780 -5.916933 0.000000 0.000000 -0.000000 -7.093912 13.268199 42.627112 -84.267042 -26.716056 1.767798 0.000026 -61.005945 0.000035 -1.218124 -19.191609 6.515944 -6.116592 -3.608379 17.999258 22.080303 28.246013 -7.275509 -0.756328 -16.860245 7.712560 -0.000002 0.000001 -0.000001 -2.555539 0.070961 -34.305554 0.219841 1.591429 -15.730465 0.085059 -0.995708 9.764609 0.000000 -0.000000 -0.000000 -2.373832 -1.020011 -27.293045 0.280936 1.794063 -17.797461 0.034159 0.632344 -6.183027 -0.000000 -0.000001 -0.000001 -1.392686 0.356874 -24.305795 0.369229 2.048670 -20.430224 0.220949 1.595226 -15.769157 0.000000 0.000000 -0.000000 -4.002636 5.324386 -14.459767 0.898028 3.118729 -32.119736 0.116746 1.165024 -11.446173 -0.000001 -0.000001 -0.000000 -6.345945 -12.351204 -41.069367 -107.596503 26.558178 18.029707 -0.000004 73.398674 0.000013 -9.858324 1.987889 -20.060916 -6.360168 -1.807606 -19.814041 9.430520 6.122962 -10.648994 -3.124434 -18.488832 -6.096626 0.000000 0.000002 0.000001 0.496987 4.919434 -2.357772 0.925873 -2.788832 36.725384 0.050944 -0.687693 8.473006 0.000000 -0.000000 -0.000001 0.166177 -0.834013 -5.471769 0.787241 -2.592924 33.773390 0.185346 -1.302043 16.201233 0.000000 -0.000001 -0.000001 -0.082770 -5.378411 -2.480444 0.219163 -1.413248 17.628788 0.218728 -1.411884 17.611296 0.000000 0.000005 0.000001 -1.016550 -8.695222 -9.241950 0.298125 -1.641035 20.590541 0.127655 -1.083981 13.430852 -0.000001 0.000002 0.000000 -19.977829 -0.540861 33.603697 42.212676 -12.557022 8.718641 -18.947351 0.432114 -26.106573 -1.754631 0.048016 -2.465850 -0.000000 -0.000000 0.000000 -20.562209 9.458466 -25.186203 51.943466 9.771670 -8.472097 -25.690396 0.384574 20.158094 -6.783557 -0.000066 0.088478 0.000000 0.000001 -0.000001 
0.088059 74.392921 -2.133917 -1.661154 -2.985052 0.207692 1.017149 0.746758 -0.173709 3.073219 1.055448 0.668540 3.069588 1.044060 0.698774 1.965742 -0.412267 2.942200 -8.223729 3.343780 -5.916933 0.000000 0.000000 -0.000000 -7.093912 13.268199 42.627112 -84.267042 -26.716056 1.767798 0.000026 -61.005945 0.000035 -1.218124 -19.191609 6.515944 -6.116592 -3.608379 17.999258 22.080303 28.246013 -7.275509 -0.756328 -16.860245 7.712560 -0.000002 0.000001 -0.000001 -2.555539 0.070961 -34.305554 0.219841 1.591429 -15.730465 0.085059 -0.995708 9.764609 0.000000 -0.000000 -0.000000 -2.373832 -1.020011 -27.293045 0.280936 1.794063 -17.797461 0.034159 0.632344 -6.183027 -0.000000 -0.000001 -0.000001 -1.392686 0.356874 -24.305795 0.369229 2.048670 -20.430224 0.220949 1.595226 -15.769157 0.000000 0.000000 -0.000000 -4.002636 5.324386 -14.459767 0.898028 3.118729 -32.119736 0.116746 1.165024 -11.446173 -0.000001 -0.000001 -0.000000 -6.345945 -12.351204 -41.069367 -107.596503 26.558178 18.029707 -0.000004 73.398674 0.000013 -9.858324 1.987889 -20.060916 -6.360168 -1.807606 -19.814041 9.430520 6.122962 -10.648994 -3.124434 -18.488832 -6.096626 0.000000 0.000002 0.000001 0.496987 4.919434 -2.357772 0.925873 -2.788832 36.725384 0.050944 -0.687693 8.473006 0.000000 -0.000000 -0.000001 0.166177 -0.834013 -5.471769 0.787241 -2.592924 33.773390 0.185346 -1.302043 16.201233 0.000000 -0.000001 -0.000001 -0.082770 -5.378411 -2.480444 0.219163 -1.413248 17.628788 0.218728 -1.411884 17.611296 0.000000 0.000005 0.000001 -1.016550 -8.695222 -9.241950 0.298125 -1.641035 20.590541 0.127655 -1.083981 13.430852 -0.000001 0.000002 0.000000 -19.977829 -0.540861 33.603697 42.212676 -12.557022 8.718641 -18.947351 0.432114 -26.106573 -1.754631 0.048016 -2.465850 -0.000000 -0.000000 0.000000 -20.562209 9.458466 -25.186203 51.943466 9.771670 -8.472097 -25.690396 0.384574 20.158094 -6.783557 -0.000066 0.088478 0.000000 0.000001 -0.000001 
